<mxfile host="app.diagrams.net" modified="2024-06-11T13:49:35.509Z" agent="Mozilla/5.0 (Windows NT 10.0; Win64; x64) AppleWebKit/537.36 (KHTML, like Gecko) Chrome/125.0.0.0 Safari/537.36" etag="n5a8e-3BqReolvl5M3o6" version="24.5.3" type="device">
  <diagram name="PÃ¡gina-1" id="dYWLFQ_hXApg4dO8Ux5K">
    <mxGraphModel dx="2117" dy="557" grid="1" gridSize="10" guides="1" tooltips="1" connect="1" arrows="1" fold="1" page="1" pageScale="1" pageWidth="827" pageHeight="1169" math="0" shadow="0">
      <root>
        <mxCell id="0" />
        <mxCell id="1" parent="0" />
        <mxCell id="kl9kv2RKV9WBScAW2XTp-1" value="avaliacao" style="html=1;whiteSpace=wrap;" parent="1" vertex="1">
          <mxGeometry x="-230" y="300" width="80" height="30" as="geometry" />
        </mxCell>
        <mxCell id="kl9kv2RKV9WBScAW2XTp-2" value="aluno" style="html=1;whiteSpace=wrap;" parent="1" vertex="1">
          <mxGeometry x="-230" y="140" width="90" height="30" as="geometry" />
        </mxCell>
        <mxCell id="kl9kv2RKV9WBScAW2XTp-3" value="turma" style="html=1;whiteSpace=wrap;" parent="1" vertex="1">
          <mxGeometry x="-90" y="320" width="90" height="30" as="geometry" />
        </mxCell>
        <mxCell id="D_cPC3IEv6OCop7_OMzk-18" style="edgeStyle=orthogonalEdgeStyle;rounded=0;orthogonalLoop=1;jettySize=auto;html=1;exitX=0.25;exitY=1;exitDx=0;exitDy=0;entryX=0.25;entryY=0;entryDx=0;entryDy=0;" edge="1" parent="1" source="kl9kv2RKV9WBScAW2XTp-4" target="kl9kv2RKV9WBScAW2XTp-6">
          <mxGeometry relative="1" as="geometry" />
        </mxCell>
        <mxCell id="kl9kv2RKV9WBScAW2XTp-4" value="curso" style="html=1;whiteSpace=wrap;" parent="1" vertex="1">
          <mxGeometry y="80" width="90" height="30" as="geometry" />
        </mxCell>
        <mxCell id="kl9kv2RKV9WBScAW2XTp-5" value="disciplina" style="html=1;whiteSpace=wrap;" parent="1" vertex="1">
          <mxGeometry x="210" y="250" width="90" height="30" as="geometry" />
        </mxCell>
        <mxCell id="kl9kv2RKV9WBScAW2XTp-6" value="professor" style="html=1;whiteSpace=wrap;" parent="1" vertex="1">
          <mxGeometry x="20" y="258" width="100" height="30" as="geometry" />
        </mxCell>
        <mxCell id="kl9kv2RKV9WBScAW2XTp-11" value="" style="endArrow=none;html=1;edgeStyle=orthogonalEdgeStyle;rounded=0;entryX=0.4;entryY=1.044;entryDx=0;entryDy=0;entryPerimeter=0;exitX=0.75;exitY=0;exitDx=0;exitDy=0;" parent="1" target="kl9kv2RKV9WBScAW2XTp-4" edge="1" source="kl9kv2RKV9WBScAW2XTp-2">
          <mxGeometry relative="1" as="geometry">
            <mxPoint x="-115" y="140" as="sourcePoint" />
            <mxPoint x="45" y="140" as="targetPoint" />
          </mxGeometry>
        </mxCell>
        <mxCell id="kl9kv2RKV9WBScAW2XTp-14" value="" style="endArrow=diamondThin;endFill=0;endSize=24;html=1;rounded=0;entryX=1;entryY=1;entryDx=0;entryDy=0;exitX=0;exitY=0.5;exitDx=0;exitDy=0;" parent="1" source="kl9kv2RKV9WBScAW2XTp-5" target="kl9kv2RKV9WBScAW2XTp-4" edge="1">
          <mxGeometry width="160" relative="1" as="geometry">
            <mxPoint x="-50" y="290" as="sourcePoint" />
            <mxPoint x="110" y="290" as="targetPoint" />
          </mxGeometry>
        </mxCell>
        <mxCell id="D_cPC3IEv6OCop7_OMzk-2" value="" style="endArrow=block;endFill=1;html=1;edgeStyle=orthogonalEdgeStyle;align=left;verticalAlign=top;rounded=0;exitX=0.42;exitY=1.02;exitDx=0;exitDy=0;exitPerimeter=0;entryX=0.75;entryY=0;entryDx=0;entryDy=0;" edge="1" parent="1" source="kl9kv2RKV9WBScAW2XTp-2" target="kl9kv2RKV9WBScAW2XTp-3">
          <mxGeometry x="-1" relative="1" as="geometry">
            <mxPoint x="-190" y="180" as="sourcePoint" />
            <mxPoint x="-20" y="310" as="targetPoint" />
          </mxGeometry>
        </mxCell>
        <mxCell id="D_cPC3IEv6OCop7_OMzk-5" value="" style="endArrow=open;endSize=12;dashed=1;html=1;rounded=0;exitX=0.5;exitY=0;exitDx=0;exitDy=0;" edge="1" parent="1" source="kl9kv2RKV9WBScAW2XTp-1">
          <mxGeometry width="160" relative="1" as="geometry">
            <mxPoint x="-190" y="280" as="sourcePoint" />
            <mxPoint x="-170" y="250" as="targetPoint" />
          </mxGeometry>
        </mxCell>
        <mxCell id="D_cPC3IEv6OCop7_OMzk-15" value="coodenador" style="endArrow=block;endFill=1;html=1;edgeStyle=orthogonalEdgeStyle;align=left;verticalAlign=top;rounded=0;entryX=0.75;entryY=1;entryDx=0;entryDy=0;exitX=0.5;exitY=0;exitDx=0;exitDy=0;" edge="1" parent="1" source="kl9kv2RKV9WBScAW2XTp-6" target="kl9kv2RKV9WBScAW2XTp-4">
          <mxGeometry x="0.3443" y="108" relative="1" as="geometry">
            <mxPoint x="-60" y="170" as="sourcePoint" />
            <mxPoint x="100" y="170" as="targetPoint" />
            <mxPoint x="1" y="1" as="offset" />
          </mxGeometry>
        </mxCell>
        <mxCell id="D_cPC3IEv6OCop7_OMzk-16" value="1" style="edgeLabel;resizable=0;html=1;align=left;verticalAlign=bottom;" connectable="0" vertex="1" parent="D_cPC3IEv6OCop7_OMzk-15">
          <mxGeometry x="-1" relative="1" as="geometry" />
        </mxCell>
        <mxCell id="D_cPC3IEv6OCop7_OMzk-19" value="alocado" style="edgeLabel;html=1;align=center;verticalAlign=middle;resizable=0;points=[];" vertex="1" connectable="0" parent="D_cPC3IEv6OCop7_OMzk-15">
          <mxGeometry x="-0.2446" y="-2" relative="1" as="geometry">
            <mxPoint as="offset" />
          </mxGeometry>
        </mxCell>
        <mxCell id="D_cPC3IEv6OCop7_OMzk-20" value="1" style="text;html=1;align=center;verticalAlign=middle;resizable=0;points=[];autosize=1;strokeColor=none;fillColor=none;" vertex="1" parent="1">
          <mxGeometry x="-45" y="98" width="30" height="30" as="geometry" />
        </mxCell>
        <mxCell id="D_cPC3IEv6OCop7_OMzk-21" value="0..1" style="text;html=1;align=center;verticalAlign=middle;resizable=0;points=[];autosize=1;strokeColor=none;fillColor=none;" vertex="1" parent="1">
          <mxGeometry x="-20" y="128" width="40" height="30" as="geometry" />
        </mxCell>
        <mxCell id="D_cPC3IEv6OCop7_OMzk-22" value="0..*" style="text;html=1;align=center;verticalAlign=middle;resizable=0;points=[];autosize=1;strokeColor=none;fillColor=none;" vertex="1" parent="1">
          <mxGeometry x="20" y="128" width="40" height="30" as="geometry" />
        </mxCell>
        <mxCell id="D_cPC3IEv6OCop7_OMzk-23" value="0..*" style="text;html=1;align=center;verticalAlign=middle;resizable=0;points=[];autosize=1;strokeColor=none;fillColor=none;" vertex="1" parent="1">
          <mxGeometry x="35" y="220" width="40" height="30" as="geometry" />
        </mxCell>
        <mxCell id="D_cPC3IEv6OCop7_OMzk-24" value="0...1" style="text;html=1;align=center;verticalAlign=middle;resizable=0;points=[];autosize=1;strokeColor=none;fillColor=none;" vertex="1" parent="1">
          <mxGeometry x="-15" y="228" width="50" height="30" as="geometry" />
        </mxCell>
        <mxCell id="D_cPC3IEv6OCop7_OMzk-27" value="1" style="endArrow=open;html=1;endSize=12;startArrow=diamondThin;startSize=14;startFill=1;edgeStyle=orthogonalEdgeStyle;align=left;verticalAlign=bottom;rounded=0;exitX=0.5;exitY=1;exitDx=0;exitDy=0;entryX=1;entryY=0.75;entryDx=0;entryDy=0;" edge="1" parent="1" source="kl9kv2RKV9WBScAW2XTp-5" target="kl9kv2RKV9WBScAW2XTp-3">
          <mxGeometry x="-1" y="3" relative="1" as="geometry">
            <mxPoint x="50" y="280" as="sourcePoint" />
            <mxPoint x="210" y="280" as="targetPoint" />
          </mxGeometry>
        </mxCell>
        <mxCell id="D_cPC3IEv6OCop7_OMzk-29" value="1" style="text;html=1;align=center;verticalAlign=middle;resizable=0;points=[];autosize=1;strokeColor=none;fillColor=none;" vertex="1" parent="1">
          <mxGeometry x="215" y="278" width="30" height="30" as="geometry" />
        </mxCell>
        <mxCell id="D_cPC3IEv6OCop7_OMzk-30" value="0..*" style="text;html=1;align=center;verticalAlign=middle;resizable=0;points=[];autosize=1;strokeColor=none;fillColor=none;" vertex="1" parent="1">
          <mxGeometry x="160" y="248" width="40" height="30" as="geometry" />
        </mxCell>
        <mxCell id="D_cPC3IEv6OCop7_OMzk-31" value="0..*" style="text;html=1;align=center;verticalAlign=middle;resizable=0;points=[];autosize=1;strokeColor=none;fillColor=none;" vertex="1" parent="1">
          <mxGeometry x="-140" y="118" width="40" height="30" as="geometry" />
        </mxCell>
        <mxCell id="D_cPC3IEv6OCop7_OMzk-32" value="0..*" style="text;html=1;align=center;verticalAlign=middle;resizable=0;points=[];autosize=1;strokeColor=none;fillColor=none;" vertex="1" parent="1">
          <mxGeometry x="-240" y="168" width="40" height="30" as="geometry" />
        </mxCell>
        <mxCell id="D_cPC3IEv6OCop7_OMzk-33" value="0..*" style="text;html=1;align=center;verticalAlign=middle;resizable=0;points=[];autosize=1;strokeColor=none;fillColor=none;" vertex="1" parent="1">
          <mxGeometry x="-100" y="290" width="40" height="30" as="geometry" />
        </mxCell>
      </root>
    </mxGraphModel>
  </diagram>
</mxfile>
